<?xml version="1.0" encoding="UTF-8" standalone="no"?><!DOCTYPE svg PUBLIC "-//W3C//DTD SVG 1.1//EN" "http://www.w3.org/Graphics/SVG/1.1/DTD/svg11.dtd"><svg width="100%" height="100%" viewBox="0 0 3334 3334" version="1.1" xmlns="http://www.w3.org/2000/svg" xmlns:xlink="http://www.w3.org/1999/xlink" xml:space="preserve" xmlns:serif="http://www.serif.com/" style="fill-rule:evenodd;clip-rule:evenodd;stroke-linejoin:round;stroke-miterlimit:2;"><path d="M625,2916.67l-208.333,-2604.17l2500,0l-208.334,2604.17l-1041.67,312.5l-1041.67,-312.5Z" style="fill:#015958;fill-rule:nonzero;"/><path d="M2708.33,520.833l-1041.67,0l-0,2552.08l833.333,-260.417l208.333,-2291.67Z" style="fill:#1eb392;fill-rule:nonzero;"/><path d="M2031.25,1822.92l-1041.67,-0l-52.083,-364.584l833.333,-260.416l-833.333,-0l-52.083,-312.5l1614.58,-0l-52.083,364.583l-677.084,260.417l625,-0l-104.166,989.583l-625,208.333l-625,-208.333l-52.084,-520.833l312.5,-0l52.084,260.416l312.5,104.167l312.5,-104.167l52.083,-416.666Z" style="fill:#cfccc7;fill-rule:nonzero;"/></svg>