<?xml version="1.0" encoding="UTF-8" standalone="no"?><!DOCTYPE svg PUBLIC "-//W3C//DTD SVG 1.1//EN" "http://www.w3.org/Graphics/SVG/1.1/DTD/svg11.dtd"><svg width="100%" height="100%" viewBox="0 0 3334 3334" version="1.1" xmlns="http://www.w3.org/2000/svg" xmlns:xlink="http://www.w3.org/1999/xlink" xml:space="preserve" xmlns:serif="http://www.serif.com/" style="fill-rule:evenodd;clip-rule:evenodd;stroke-linecap:round;stroke-linejoin:round;stroke-miterlimit:10;"><g id="color"><path d="M1344.63,2852.37c0,-42.938 -1.608,-184.251 -1.608,-359.47c-0,-122.504 40.463,-202.441 86.248,-243.152c-288.318,-33.41 -591.609,-146.015 -591.609,-649.768c-0,-143.416 50.734,-260.724 133.641,-352.54c-13.241,-33.286 -58.035,-166.928 12.869,-347.838c-0,0 109.016,-35.39 357.242,134.631c103.572,-29.079 214.692,-43.804 325.317,-44.052c110.378,0.25 221.498,14.973 325.317,44.052c247.978,-170.021 356.995,-134.631 356.995,-134.631c70.904,180.91 26.357,314.552 12.869,347.838c83.154,91.816 133.394,209 133.394,352.54c-0,504.866 -303.662,616.11 -593.342,648.53c46.898,40.835 88.352,120.896 88.352,243.648c-0,175.589 -1.609,317.15 -1.609,360.212c0,35.266 23.388,75.977 89.342,63.356c516.003,-173.981 887.847,-666.473 887.847,-1246.82c-0,-725.869 -581.834,-1314.26 -1299.41,-1314.26c-717.331,-0 -1299.04,588.268 -1299.04,1314.26c-0,580.596 372.215,1073.21 888.96,1246.94c64.593,12.127 88.228,-28.46 88.228,-63.479l-0.001,-0Z" style="fill:#1eb095;fill-rule:nonzero;"/></g><g id="line"><path d="M1344.63,2852.37c0,-42.938 -1.608,-184.251 -1.608,-359.47c-0,-122.504 40.463,-202.441 86.248,-243.152c-288.318,-33.41 -591.609,-146.015 -591.609,-649.768c-0,-143.416 50.734,-260.724 133.641,-352.54c-13.241,-33.286 -58.035,-166.928 12.869,-347.838c-0,0 109.016,-35.39 357.242,134.631c103.572,-29.079 214.692,-43.804 325.317,-44.052c110.378,0.25 221.498,14.973 325.317,44.052c247.978,-170.021 356.995,-134.631 356.995,-134.631c70.904,180.91 26.357,314.552 12.869,347.838c83.154,91.816 133.394,209 133.394,352.54c-0,504.866 -303.662,616.11 -593.342,648.53c46.898,40.835 88.352,120.896 88.352,243.648c-0,175.589 -1.609,317.15 -1.609,360.212c0,35.266 23.388,75.977 89.342,63.356c516.003,-173.981 887.847,-666.473 887.847,-1246.82c-0,-725.869 -581.834,-1314.26 -1299.41,-1314.26c-717.331,-0 -1299.04,588.268 -1299.04,1314.26c-0,580.596 372.215,1073.21 888.96,1246.94c64.593,12.127 88.228,-28.46 88.228,-63.479l-0.001,-0Z" style="fill:none;fill-rule:nonzero;stroke:#cfccc7;stroke-width:92.59px;"/><path d="M754.133,2226.36c118.916,36.132 165.814,75.73 221.745,169.526c55.807,93.796 121.267,198.482 367.265,138.838" style="fill:none;fill-rule:nonzero;stroke:#cfccc7;stroke-width:92.59px;"/></g></svg>