<?xml version="1.0" encoding="UTF-8" standalone="no"?><!DOCTYPE svg PUBLIC "-//W3C//DTD SVG 1.1//EN" "http://www.w3.org/Graphics/SVG/1.1/DTD/svg11.dtd"><svg width="100%" height="100%" viewBox="0 0 3334 3334" version="1.1" xmlns="http://www.w3.org/2000/svg" xmlns:xlink="http://www.w3.org/1999/xlink" xml:space="preserve" xmlns:serif="http://www.serif.com/" style="fill-rule:evenodd;clip-rule:evenodd;stroke-linejoin:round;stroke-miterlimit:2;"><path d="M2844.46,653.426l-214.599,2404.06l-964.635,267.424l-961.976,-267.054l-214.377,-2404.43l2355.59,-0Z" style="fill:#015958;fill-rule:nonzero;"/><path d="M1666.67,3120.5l779.473,-216.095l183.38,-2054.39l-962.853,0l-0,2270.48Z" style="fill:#1eb392;fill-rule:nonzero;"/><path d="M1249.49,1439.82l417.175,0l-0,-294.893l-739.456,-0l7.055,79.113l72.484,812.65l659.917,0l-0,-294.894l-390.222,0l-26.953,-301.976Zm66.464,744.322l-296.03,-0l41.311,463.028l604.072,167.683l1.358,-0.37l-0,-306.814l-1.293,0.342l-328.421,-88.68l-20.997,-235.189Z" style="fill:#ebebeb;fill-rule:nonzero;"/><path d="M708.033,0l149.862,0l-0,148.061l137.091,-0l0,-148.061l149.871,0l-0,448.366l-149.862,-0l0,-150.139l-137.091,0l-0,150.139l-149.862,-0l0,-448.366l-0.009,0Zm633.915,148.689l-131.939,-0l0,-148.689l413.795,0l0,148.689l-131.994,-0l-0,299.677l-149.862,-0l0,-299.677Zm347.526,-148.689l156.26,0l96.122,157.544l96.03,-157.544l156.325,0l-0,448.366l-149.253,-0l0,-222.235l-103.102,159.418l-2.585,0l-103.168,-159.418l0,222.235l-146.629,-0l-0,-448.366Zm579.307,0l149.917,0l0,300.166l210.748,0l-0,148.2l-360.665,-0l0,-448.366Z" style="fill:#cfccc7;fill-rule:nonzero;"/><path d="M1665.65,2036.68l363.13,0l-34.238,382.456l-328.901,88.772l-0,306.796l604.552,-167.544l4.432,-49.824l69.308,-776.362l7.193,-79.188l-685.476,0l-0,294.894Zm-0,-597.59l-0,0.72l712.308,0l5.91,-66.279l13.444,-149.501l7.045,-79.113l-738.707,-0l-0,294.182l-0,-0.009Z" style="fill:#fff;fill-rule:nonzero;"/></svg>