<?xml version="1.0" encoding="UTF-8" standalone="no"?><!DOCTYPE svg PUBLIC "-//W3C//DTD SVG 1.1//EN" "http://www.w3.org/Graphics/SVG/1.1/DTD/svg11.dtd"><svg width="100%" height="100%" viewBox="0 0 2134 2134" version="1.1" xmlns="http://www.w3.org/2000/svg" xmlns:xlink="http://www.w3.org/1999/xlink" xml:space="preserve" xmlns:serif="http://www.serif.com/" style="fill-rule:evenodd;clip-rule:evenodd;stroke-linejoin:round;stroke-miterlimit:2;"><path d="M2133.33,320l0,1493.33c0,176.613 -143.387,320 -320,320l-1493.33,0c-176.613,0 -320,-143.387 -320,-320l0,-1493.33c0,-176.613 143.387,-320 320,-320l1493.33,0c176.613,0 320,143.387 320,320Z" style="fill:#1eb095;"/><path d="M1350,1541.67c41.667,70.833 100,120.833 195.833,120.833c83.334,0 137.5,-41.667 137.5,-100c0,-66.667 -54.166,-91.667 -145.833,-133.333l-50,-20.834c-145.833,-62.5 -241.667,-137.5 -241.667,-300c0,-150 112.5,-266.666 291.667,-266.666c129.167,-0 220.833,45.833 283.333,162.5l-154.166,100c-33.334,-62.5 -70.834,-87.5 -129.167,-87.5c-58.333,-0 -95.833,37.5 -95.833,87.5c-0,58.333 37.5,83.333 125,120.833l50,20.833c170.833,75 266.666,145.834 266.666,316.667c0,179.167 -141.666,279.167 -333.333,279.167c-187.5,-0 -308.333,-87.5 -366.667,-204.167l166.667,-95.833Zm-708.333,16.666c33.333,54.167 58.333,104.167 129.166,104.167c66.667,0 108.334,-25 108.334,-125l-0,-691.667l200,0l-0,683.334c-0,208.333 -120.834,300 -300,300c-162.5,-0 -254.167,-83.334 -300,-183.334l162.5,-87.5Z" style="fill:#cfccc7;fill-rule:nonzero;"/></svg>