<?xml version="1.0" encoding="UTF-8" standalone="no"?><!DOCTYPE svg PUBLIC "-//W3C//DTD SVG 1.1//EN" "http://www.w3.org/Graphics/SVG/1.1/DTD/svg11.dtd"><svg width="100%" height="100%" viewBox="0 0 3334 3334" version="1.1" xmlns="http://www.w3.org/2000/svg" xmlns:xlink="http://www.w3.org/1999/xlink" xml:space="preserve" xmlns:serif="http://www.serif.com/" style="fill-rule:evenodd;clip-rule:evenodd;stroke-linejoin:round;stroke-miterlimit:2;"><path d="M3127.71,1576.98c-8.541,-0.625 -18.437,-1.042 -28.437,-1.042c-50.417,0 -98.646,9.375 -143.021,26.459l2.708,-0.938c-13.021,5.209 -33.854,5.209 -35.625,21.771c7.188,6.875 8.23,18.229 14.271,27.813c12.188,20.625 27.188,38.125 44.688,52.708l0.312,0.312c18.229,14.271 36.459,28.125 55.625,40.313c33.854,20.833 72.292,33.229 105.417,54.167c18.854,12.187 38.125,27.708 57.292,40.729c9.479,6.458 15.624,18.229 27.812,22.396l0,-2.605c-5.937,-7.812 -7.813,-19.166 -13.646,-27.812c-8.75,-8.75 -17.396,-16.563 -26.041,-25.104c-25.834,-33.854 -55.73,-62.813 -89.271,-86.979l-1.25,-0.834c-27.813,-18.958 -88.75,-45.521 -100.209,-77.5l-1.666,-1.875c22.708,-3.229 42.916,-8.021 62.396,-14.479l-2.5,0.729c29.583,-7.812 56.666,-6.146 87.187,-13.75c13.75,-3.541 27.708,-7.812 41.667,-12.187l-0,-7.813c-15.625,-15.625 -27.292,-36.875 -43.438,-51.458c-42.604,-37.5 -89.583,-72.708 -139.062,-104.375l-4.688,-2.813c-27.291,-17.395 -61.979,-28.645 -90.729,-43.437c-10.417,-5.208 -27.813,-7.813 -33.854,-16.563c-13.542,-19.27 -25.521,-41.354 -35,-64.687l-0.833,-2.292c-25.556,-49.583 -49.306,-100.034 -71.25,-151.354c-15,-39.896 -29.896,-72.604 -46.667,-104.271l2.396,4.896c-81.875,-137.396 -195.938,-247.812 -332.084,-323.125l-4.479,-2.292c-32.187,-15.937 -69.583,-28.333 -108.854,-35.312l-2.604,-0.417c-21.771,-1.041 -43.438,-2.604 -65.104,-3.541c-15.209,-9.792 -28.334,-19.792 -40.625,-30.834l0.312,0.313c-49.479,-31.25 -177.5,-98.959 -213.958,-9.375c-23.438,56.458 34.791,112.187 54.896,140.833c16.041,19.063 30.625,40.417 43.229,63.021l1.041,2.083c6.146,15.105 7.813,30.625 13.959,46.355c15.104,47.083 30.416,85.729 47.812,123.125l-2.708,-6.459c10.313,20.729 21.042,38.334 33.021,55l-0.834,-1.25c6.98,9.479 18.959,13.959 21.771,29.584c-8.958,18.854 -15.937,40.729 -19.791,63.541l-0.209,1.459c-11.25,34.583 -17.812,74.479 -17.812,115.833c-0,64.687 15.937,125.625 44.062,179.167l-1.041,-2.084c13.958,21.563 47.083,69.479 91.458,51.146c39.062,-15.625 30.417,-65.104 41.667,-108.646c2.604,-10.416 0.937,-17.291 6.25,-24.375l-0,1.979c12.187,24.48 24.479,47.813 35.625,72.292c31.458,45.313 68.854,83.854 111.562,115.625l1.354,0.938c20.834,15.625 37.396,42.708 63.438,52.291l-0,-2.604l-1.979,0c-5.938,-6.458 -12.5,-12.187 -19.688,-17.083l-0.417,-0.209c-16.145,-15.833 -31.145,-32.916 -44.687,-50.937l-0.833,-1.146c-33.959,-45.833 -66.25,-97.708 -94.271,-152.187l-3.021,-6.355c-14.271,-27.291 -26.25,-56.77 -37.708,-83.75c-5.209,-10.416 -5.209,-26.041 -13.959,-31.25c-15.416,17.292 -29.271,36.563 -40.833,57.292l-0.833,1.667c-13.334,38.854 -22.084,83.75 -24.375,130.312l-0,1.146c-3.542,0.938 -1.771,0 -3.542,1.875c-27.813,-6.771 -37.396,-35.625 -47.813,-59.896c-14.166,-38.125 -22.395,-82.291 -22.395,-128.229c-0,-37.083 5.312,-72.917 15.312,-106.771l-0.625,2.709c6.146,-18.23 32.188,-75.73 21.771,-93.23c-5.417,-16.562 -22.604,-26.041 -32.188,-39.479c-11.354,-16.041 -21.77,-34.271 -30.416,-53.541l-0.834,-2.084c-20.833,-48.646 -31.25,-102.604 -53.854,-151.25c-13.646,-25.416 -28.021,-47.291 -44.166,-67.708l0.729,0.937c-17.188,-19.895 -33.021,-42.083 -46.771,-65.625l-1.146,-2.083c-4.271,-9.479 -10.417,-25.208 -3.542,-35.625c1.25,-6.042 6.042,-10.729 12.188,-11.667l0.104,0c11.458,-9.375 43.646,2.813 54.896,8.021c33.021,12.5 61.458,27.188 87.812,44.479l-1.666,-1.041c12.187,8.541 25.416,25.104 41.041,29.375l18.23,-0c27.812,6.146 59.27,1.875 85.312,9.479c47.813,16.146 89.167,36.354 127.396,61.146l-2.188,-1.354c115,74.27 207.084,174.687 269.375,293.333l2.084,4.271c10.416,20 15,38.437 24.479,59.271c18.229,42.916 40.729,86.354 59.271,127.812c17.604,44.583 38.437,83.125 63.229,118.646l-1.25,-1.875c13.021,18.229 65.312,27.708 88.75,37.187c24.687,8.646 44.479,16.875 63.646,26.146l-3.854,-1.666c29.895,18.229 59.062,39.062 87.187,59.062c14.271,9.896 57.708,31.667 60.313,49.167l-0.209,0.312Zm-1221.25,761.771c0,1.563 0.104,3.333 0.104,5.104c0,58.125 -25.937,110.104 -66.979,145.104l-0.312,0.209c-45,36.666 -103.021,58.958 -166.25,58.958c-4.896,0 -9.792,-0.104 -14.584,-0.417l0.625,0c-76.979,-1.041 -147.812,-26.041 -205.833,-67.812l1.042,0.729l30.833,-61.979c44.688,25 97.813,40.521 154.271,42.708l0.625,0c2.812,0.209 6.042,0.313 9.375,0.313c34.583,-0 66.771,-10.834 93.125,-29.271l-0.521,0.312c23.854,-18.125 39.063,-46.458 39.063,-78.333l-0,-1.771l-0,0.104c-0,-42.916 -29.896,-79.375 -84.375,-110c-50.521,-27.708 -151.355,-85.52 -151.355,-85.52c-49.791,-30.834 -82.395,-85.105 -82.395,-146.98c-0,-2.187 -0,-4.375 0.104,-6.562l-0,0.312c-0.104,-1.979 -0.104,-4.27 -0.104,-6.562c-0,-53.646 23.645,-101.771 61.041,-134.479l0.209,-0.209c39.791,-33.75 91.77,-54.27 148.541,-54.27c3.646,-0 7.188,0.104 10.729,0.208l-0.52,-0l3.229,-0c66.562,-0 128.541,19.896 180.208,54.167l-1.25,-0.73l-27.708,61.98c-40.729,-18.334 -88.229,-29.375 -138.229,-29.896l-0.209,-0c-2.5,-0.209 -5.312,-0.313 -8.229,-0.313c-29.167,0 -56.042,10.209 -77.083,27.292l0.208,-0.208c-19.687,16.354 -32.187,40.833 -32.292,68.229c0,42.708 30.417,79.375 86.667,110.625c51.146,28.021 154.479,87.187 154.479,87.187c50.834,29.896 84.479,84.271 84.479,146.563c0,1.875 0,3.854 -0.104,5.729l0,-0.313l-0.625,-0.208Zm215.834,55.313c-28.438,-56.771 -45,-123.646 -45,-194.375c-0,-11.146 0.416,-22.188 1.25,-33.021l-0.105,1.458c0,-181.319 55.105,-272.014 165.313,-272.083c2.708,-0.209 5.937,-0.313 9.271,-0.313c49.479,0 92.916,25.834 117.604,64.792l0.312,0.521c28.23,56.458 44.792,123.125 44.792,193.541c0,10.834 -0.417,21.563 -1.146,32.188l0.104,-1.458c0,182.777 -55.104,274.236 -165.312,274.375c-2.813,0.208 -6.042,0.312 -9.271,0.312c-49.479,0 -93.021,-25.833 -117.708,-64.792l-0.313,-0.52l0.209,-0.625Zm428.541,161.666l-132.291,-65.104c12.083,-10.104 22.916,-20.729 32.916,-32.187l0.313,-0.313c53.437,-72.083 85.521,-162.812 85.521,-260.937c-0,-11.355 -0.417,-22.605 -1.25,-33.75l0.104,1.458c-0,-238.195 -93.507,-357.361 -280.521,-357.5c-4.167,-0.208 -9.063,-0.313 -13.958,-0.313c-79.896,0 -151.667,35.105 -200.521,90.834l-0.208,0.312c-53.23,72.084 -85.209,162.709 -85.209,260.834c0,11.041 0.417,21.979 1.25,32.812l-0.104,-1.458c-0.937,10.521 -1.458,22.812 -1.458,35.208c-0,91.042 28.541,175.417 77.083,244.688l-0.938,-1.355c46.771,49.792 113.126,80.834 186.563,80.834c6.875,-0 13.646,-0.313 20.313,-0.834l-0.938,0.105l3.333,-0c32.396,-0 63.75,-4.688 93.438,-13.334l-2.292,0.625l172.5,100.521l46.875,-80.937l-0.521,-0.209Zm432.084,-17.604l-342.396,0l-0,-719.792l115.208,0l0,631.355l227.188,-0l-0,88.437Zm-1604.27,-531.042c-29.896,217.084 -98.333,413.021 -198.438,588.542l4.167,-8.021c-40.104,77.188 -115.937,130.938 -205,139.584l-1.042,0.104c-26.979,-1.459 -52.083,-7.917 -74.895,-18.438l1.25,0.521l-0,-64.271c14.27,2.188 30.729,3.438 47.5,3.438l2.916,-0l-0.104,-0c1.667,0.104 3.542,0.104 5.417,0.104c30.104,-0 57.708,-10.938 78.958,-29.167l-0.208,0.104c22.916,-18.854 37.604,-46.979 38.437,-78.645l0,-0.105c-5.521,-45.625 -16.041,-87.187 -31.146,-126.458l1.25,3.542l-131.979,-410.834l118.438,0l94.687,307.188c16.875,43.333 26.667,93.542 26.667,145.937l-0,0.209c50.208,-131.459 88.333,-284.792 107.708,-443.854l0.938,-9.584l114.479,0.104Zm-522.604,531.042l-120.938,0c-3.403,-191.736 -15.104,-383.09 -35.104,-574.062l-1.042,-0l-183.541,574.062l-91.771,0l-182.292,-574.062l-1.25,-0c-14.236,191.041 -22.708,382.395 -25.416,574.062l-110,0c7.152,-255.903 24.93,-495.868 53.333,-719.896l149.687,0l173.75,529.063l1.042,-0l175.313,-529.063l142.5,0c31.527,262.292 50.104,502.257 55.729,719.896Zm1384.06,-1717.4l-0.833,0c-12.396,0 -24.375,1.563 -35.833,4.479l1.041,-0.208l0,1.667l1.771,-0c8.958,13.333 18.125,24.896 28.021,35.729l-0.208,-0.208c6.979,13.958 13.02,27.812 20,41.666l1.77,-1.979c11.355,-8.958 18.542,-22.708 18.542,-38.125c0,-1.875 -0.104,-3.646 -0.312,-5.521l-0,0.209c-5.209,-6.146 -5.938,-12.188 -10.417,-18.23c-5.208,-8.75 -16.354,-13.02 -23.438,-19.895l-0.104,0.416Z" style="fill:#1eb095;fill-rule:nonzero;"/></svg>