<?xml version="1.0" encoding="UTF-8" standalone="no"?><!DOCTYPE svg PUBLIC "-//W3C//DTD SVG 1.1//EN" "http://www.w3.org/Graphics/SVG/1.1/DTD/svg11.dtd"><svg width="100%" height="100%" viewBox="0 0 2717 2717" version="1.1" xmlns="http://www.w3.org/2000/svg" xmlns:xlink="http://www.w3.org/1999/xlink" xml:space="preserve" xmlns:serif="http://www.serif.com/" style="fill-rule:evenodd;clip-rule:evenodd;stroke-linejoin:round;stroke-miterlimit:2;"><path d="M476.667,1091.67l-194.167,-112.084l-194.167,112.084l0,-112.084l194.167,-112.083l194.167,112.083l-0,112.084Z" style="fill:#a435f0;fill-rule:nonzero;"/><path d="M88.333,1185.83l101.667,0l0,247.084c0,63.75 47.5,95 92.5,95c45,-0 92.5,-32.084 92.5,-95.834l0,-246.25l101.667,0l-0,252.917c-0,58.75 -18.334,104.167 -55.417,135.417c-37.083,31.25 -83.333,46.25 -139.583,46.25c-56.25,-0 -102.5,-15 -138.75,-46.25c-36.25,-31.25 -54.584,-75 -54.584,-132.917c0,0.417 0,-255.417 0,-255.417Zm1267.92,307.5c-30.833,27.5 -65.833,40.834 -105.833,40.834c-72.917,-0 -122.084,-41.667 -127.5,-105.834l328.75,0c-0,0 2.083,-20.833 2.083,-40.416c0,-60.417 -19.167,-110.834 -58.75,-152.084c-38.75,-41.25 -89.167,-61.25 -150.417,-61.25c-64.583,0 -117.5,20 -159.583,61.25c-41.25,41.25 -62.083,95 -62.083,162.084l-0,3.333c-0,66.25 20.833,119.583 62.083,158.75c41.25,39.583 95.833,59.583 162.083,59.583c77.084,0 138.75,-30.416 184.584,-82.916l-75.417,-43.334Zm-193.333,-206.666c22.5,-17.5 50.416,-27.084 81.666,-27.084c29.584,0 53.75,9.167 75,27.917c20,16.667 30.834,37.5 31.667,61.25l-225.417,-0c2.917,-24.167 15.417,-45 37.084,-62.083Zm1217.5,390c-41.25,97.5 -84.584,130.416 -150.834,130.416l-45.833,0l-0,-90l37.083,0c22.917,0 43.75,-8.75 64.167,-55l20,-46.666l-174.167,-429.584l103.334,0l123.75,309.167l127.083,-309.167l103.333,0l-207.916,490.834Zm-1507.5,-652.917l-0,200.417c-33.334,-30 -85,-47.5 -135.417,-47.5c-59.583,-0 -110,20.833 -151.25,63.75c-40.417,42.083 -60.417,94.166 -60.417,157.083c0,62.917 20,115 60.417,157.917c41.25,42.083 91.667,62.916 151.25,62.916c68.75,0 112.5,-27.083 135.417,-48.333l-0,39.167l100.833,-0l-0,-585.417l-100.833,0Zm-30.417,466.667c-24.583,24.583 -55.417,37.083 -91.667,37.083c-36.25,0 -65.416,-12.5 -90,-37.083c-23.333,-24.584 -35.416,-55.417 -35.416,-92.5c-0,-37.084 11.666,-67.917 35.416,-92.5c24.584,-24.584 53.75,-37.084 90,-37.084c36.25,0 67.084,12.5 91.667,37.084c25.417,24.583 37.917,55.416 37.917,92.5c-0,37.083 -12.5,67.916 -37.917,92.5Zm1131.67,-312.917c-76.667,0 -116.25,31.667 -143.75,62.5c-10.834,-20.833 -41.667,-62.5 -113.334,-62.5c-60.833,0 -96.666,30.833 -114.166,52.5l-0,-44.167l-100,0l-0,423.75l100,0l-0,-243.75c-0,-57.083 35.416,-98.333 82.5,-98.333c47.916,0 75.833,36.25 75.833,94.167l-0,247.916l100,0l-0,-243.75c-0,-57.916 34.583,-98.333 84.167,-98.333c47.916,0 75.833,36.25 75.833,94.167l-0,247.916l100.833,0l0,-262.083c-0.833,-110.417 -60,-170 -147.916,-170Z" style="fill:#fff;fill-rule:nonzero;"/></svg>